<svg data-v-d3f97b9e="" xmlns="http://www.w3.org/2000/svg" viewBox="0 0 705 90"><!----><!----><!----><g data-v-d3f97b9e="" id="e852763a-dcf7-4a1f-8942-bf35527df90f" fill="white" transform="matrix(5.529953722625812,0,0,5.529953722625812,198.1519665452136,-2.1981552588324647)"><path d="M4.41 13.96C6.26 13.96 7.29 13.01 7.29 11.89C7.29 10.88 6.52 10.30 4.52 9.77C3.19 9.42 2.34 9.02 2.34 8.37C2.34 7.73 2.77 7.13 4.20 7.13C5.08 7.13 5.82 7.45 6.41 7.91L6.85 7.34C6.19 6.86 5.15 6.47 4.21 6.47C2.38 6.47 1.48 7.35 1.48 8.41C1.48 9.35 2.65 10.02 4.12 10.40C5.99 10.88 6.45 11.34 6.45 11.94C6.45 12.68 5.78 13.29 4.45 13.29C3.12 13.29 2.27 12.89 1.53 12.28L1.11 12.84C1.92 13.44 3.05 13.96 4.41 13.96ZM11.96 13.96C12.95 13.96 13.96 13.37 14.73 12.73L14.77 12.73L14.84 13.78L15.51 13.78L15.51 9.27C15.51 7.67 14.71 6.47 12.89 6.47C11.70 6.47 10.72 7.08 10.23 7.50L10.57 8.11C11.06 7.67 11.82 7.17 12.77 7.17C14.22 7.17 14.69 8.19 14.70 9.28C11.10 9.62 9.65 10.37 9.65 12.00C9.65 13.30 10.74 13.96 11.96 13.96ZM12.14 13.29C11.28 13.29 10.44 12.89 10.44 11.94C10.44 10.85 11.47 10.18 14.70 9.87L14.70 12.05C13.82 12.87 12.96 13.29 12.14 13.29ZM21.18 13.96C22.83 13.96 24.29 12.53 24.29 10.09C24.29 7.88 23.32 6.47 21.45 6.47C20.61 6.47 19.68 6.94 19.00 7.67L19.03 6.17L19.03 3.57L18.21 3.57L18.21 13.78L18.89 13.78L18.96 12.98L18.98 12.98C19.66 13.57 20.52 13.96 21.18 13.96ZM21.11 13.26C20.57 13.26 19.75 12.96 19.03 12.25L19.03 8.41C19.82 7.57 20.64 7.17 21.29 7.17C22.83 7.17 23.45 8.40 23.45 10.11C23.45 11.98 22.46 13.26 21.11 13.26ZM29.58 13.96C31.23 13.96 32.69 12.53 32.69 10.09C32.69 7.88 31.72 6.47 29.85 6.47C29.01 6.47 28.08 6.94 27.40 7.67L27.43 6.17L27.43 3.57L26.61 3.57L26.61 13.78L27.29 13.78L27.36 12.98L27.38 12.98C28.06 13.57 28.92 13.96 29.58 13.96ZM29.51 13.26C28.97 13.26 28.15 12.96 27.43 12.25L27.43 8.41C28.22 7.57 29.04 7.17 29.69 7.17C31.23 7.17 31.85 8.40 31.85 10.11C31.85 11.98 30.86 13.26 29.51 13.26ZM37.16 13.96C38.15 13.96 39.16 13.37 39.93 12.73L39.97 12.73L40.04 13.78L40.71 13.78L40.71 9.27C40.71 7.67 39.91 6.47 38.09 6.47C36.90 6.47 35.92 7.08 35.43 7.50L35.77 8.11C36.26 7.67 37.02 7.17 37.97 7.17C39.42 7.17 39.89 8.19 39.90 9.28C36.30 9.62 34.85 10.37 34.85 12.00C34.85 13.30 35.94 13.96 37.16 13.96ZM37.34 13.29C36.48 13.29 35.64 12.89 35.64 11.94C35.64 10.85 36.67 10.18 39.90 9.87L39.90 12.05C39.02 12.87 38.16 13.29 37.34 13.29ZM47.53 13.96C48.22 13.96 49.01 13.76 49.63 13.51L49.42 12.91C48.92 13.13 48.37 13.26 47.68 13.26C46.26 13.26 45.86 12.47 45.86 11.12L45.86 7.32L49.36 7.32L49.36 6.64L45.86 6.64L45.86 3.89L45.08 4.54L45.08 6.64L43.08 6.64L43.08 7.32L45.05 7.32L45.05 11.09C45.05 12.80 45.64 13.96 47.53 13.96ZM54.99 4.76C55.44 4.76 55.82 4.41 55.82 3.95C55.82 3.44 55.44 3.11 54.99 3.11C54.54 3.11 54.17 3.44 54.17 3.95C54.17 4.41 54.54 4.76 54.99 4.76ZM52.01 13.78L58.31 13.78L58.31 13.09L55.55 13.09L55.55 6.64L52.01 6.64L52.01 7.32L54.75 7.32L54.75 13.09L52.01 13.09ZM63.66 13.96C64.69 13.96 65.59 13.51 66.30 12.81L65.93 12.28C65.31 12.84 64.58 13.27 63.70 13.27C61.98 13.27 60.83 12.04 60.83 10.22C60.83 8.40 62.01 7.15 63.71 7.15C64.50 7.15 65.13 7.52 65.70 8.09L66.14 7.55C65.58 6.97 64.81 6.47 63.70 6.47C61.67 6.47 59.99 7.83 59.99 10.22C59.99 12.59 61.56 13.96 63.66 13.96ZM71.40 13.94C71.90 13.94 72.35 13.55 72.35 12.94C72.35 12.31 71.90 11.93 71.40 11.93C70.90 11.93 70.45 12.31 70.45 12.94C70.45 13.55 70.90 13.94 71.40 13.94ZM79.16 13.96C80.15 13.96 81.16 13.37 81.93 12.73L81.97 12.73L82.04 13.78L82.71 13.78L82.71 9.27C82.71 7.67 81.91 6.47 80.09 6.47C78.90 6.47 77.92 7.08 77.43 7.50L77.77 8.11C78.26 7.67 79.02 7.17 79.97 7.17C81.42 7.17 81.89 8.19 81.90 9.28C78.30 9.62 76.85 10.37 76.85 12.00C76.85 13.30 77.94 13.96 79.16 13.96ZM79.34 13.29C78.48 13.29 77.64 12.89 77.64 11.94C77.64 10.85 78.67 10.18 81.90 9.87L81.90 12.05C81.02 12.87 80.16 13.29 79.34 13.29ZM89.74 13.96C90.44 13.96 90.90 13.75 91.48 13.51L91.25 12.88C90.72 13.15 90.31 13.27 89.89 13.27C88.98 13.27 88.48 12.75 88.48 11.63L88.48 3.57L85.23 3.57L85.23 4.26L87.67 4.26L87.67 11.56C87.67 13.19 88.41 13.96 89.74 13.96Z"></path></g><!----><g data-v-d3f97b9e="" id="b64f253d-6241-4151-9128-e632ec1d729b" transform="matrix(1.9642957646804153,0,0,1.9642957646804153,-5.038001315471789,-53.035985646371216)" stroke="none" fill="white"><g><path d="M96.82 27.329s-5.268 4.884-5.536 5.258c-.749 1.044-2.272 3.724-4.614 7.231-3.183 4.764-5.547 8.971-9.229 13.476-8.443 10.33-13.973 13.317-17.226 15.447-9.536 6.245-25.224 4.273-30.76.986-5.538-3.286-11.075-10.189-11.075-10.189s4 4.273 14.766.33C43.912 55.922 48.37 54.621 55.6 51.44c5.076-2.233 20.61-9.98 26.762-13.924 3.697-2.37 6.924-4.786 7.69-5.258.352-.217 3.076-4.93 3.076-4.93h3.692z"></path><path d="M3 27h3.999s.923 3.944 1.23 4.601c1.332 2.845 10.936 10.864 19.072 14.79 9.536 4.602 25.84 4.273 25.84 4.273s-16.92 6.245-22.456 8.217c-5.537 1.972-9.228.657-9.228.657s-4.291-.951-6.46-5.587c-3.076-6.573-1.846-7.56-3.692-12.818-1.395-3.975-3.586-7.92-4.614-9.532C6.36 31.081 3 27 3 27z"></path></g></g><!----></svg>