<svg data-v-d3f97b9e="" xmlns="http://www.w3.org/2000/svg" viewBox="0 0 122.86015202857405 60"><!----><!----><!----><!----><g data-v-d3f97b9e="" id="e4ed7559-b1d0-4010-ae34-d087e8bba100" transform="matrix(1.3095305097869436,0,0,1.3095305097869436,-3.928591898201077,-35.35732376424748)" stroke="none" fill="white"><g><path d="M96.82 27.329s-5.268 4.884-5.536 5.258c-.749 1.044-2.272 3.724-4.614 7.231-3.183 4.764-5.547 8.971-9.229 13.476-8.443 10.33-13.973 13.317-17.226 15.447-9.536 6.245-25.224 4.273-30.76.986-5.538-3.286-11.075-10.189-11.075-10.189s4 4.273 14.766.33C43.912 55.922 48.37 54.621 55.6 51.44c5.076-2.233 20.61-9.98 26.762-13.924 3.697-2.37 6.924-4.786 7.69-5.258.352-.217 3.076-4.93 3.076-4.93h3.692z"></path><path d="M3 27h3.999s.923 3.944 1.23 4.601c1.332 2.845 10.936 10.864 19.072 14.79 9.536 4.602 25.84 4.273 25.84 4.273s-16.92 6.245-22.456 8.217c-5.537 1.972-9.228.657-9.228.657s-4.291-.951-6.46-5.587c-3.076-6.573-1.846-7.56-3.692-12.818-1.395-3.975-3.586-7.92-4.614-9.532C6.36 31.081 3 27 3 27z"></path></g></g><!----></svg>