<svg data-v-033f7a01="" xmlns="http://www.w3.org/2000/svg" viewBox="0 0 300 300"><!----><defs data-v-033f7a01=""><!----></defs><rect data-v-033f7a01="" fill="transparent" x="0" y="0" width="300px" height="300px" class="logo-background-square"></rect><!----><defs data-v-033f7a01=""><linearGradient data-v-033f7a01="" gradientTransform="rotate(25)" id="a8ded5eb-13d0-436a-9396-fcd218dfaae1" x1="0%" y1="0%" x2="100%" y2="0%"><stop data-v-033f7a01="" offset="0%" stop-color="#E90DDA" stop-opacity="1"></stop><stop data-v-033f7a01="" offset="100%" stop-color="#15CFF1" stop-opacity="1"></stop></linearGradient></defs><g data-v-033f7a01="" id="4b080ed2-3eb1-420a-98d5-57407180cb16" fill="url(#a8ded5eb-13d0-436a-9396-fcd218dfaae1)" stroke="none" transform="matrix(2.3449158038329942,0,0,2.3449158038329942,32.965252588501016,32.96765883221145)"><g><path d="M96.82 27.329s-5.268 4.884-5.536 5.258c-.749 1.044-2.272 3.724-4.614 7.231-3.183 4.764-5.547 8.971-9.229 13.476-8.443 10.33-13.973 13.317-17.226 15.447-9.536 6.245-25.224 4.273-30.76.986-5.538-3.286-11.075-10.189-11.075-10.189s4 4.273 14.766.33C43.912 55.922 48.37 54.621 55.6 51.44c5.076-2.233 20.61-9.98 26.762-13.924 3.697-2.37 6.924-4.786 7.69-5.258.352-.217 3.076-4.93 3.076-4.93h3.692z"></path><path d="M3 27h3.999s.923 3.944 1.23 4.601c1.332 2.845 10.936 10.864 19.072 14.79 9.536 4.602 25.84 4.273 25.84 4.273s-16.92 6.245-22.456 8.217c-5.537 1.972-9.228.657-9.228.657s-4.291-.951-6.46-5.587c-3.076-6.573-1.846-7.56-3.692-12.818-1.395-3.975-3.586-7.92-4.614-9.532C6.36 31.081 3 27 3 27z"></path></g></g><!----></svg>